<mxfile host="app.diagrams.net" modified="2024-05-08T22:53:48.086Z" agent="Mozilla/5.0 (X11; Ubuntu; Linux x86_64; rv:125.0) Gecko/20100101 Firefox/125.0" version="24.3.1" etag="MlaYIzp6q9essv--4lR5" type="github">
  <diagram name="Page-1" id="MC934j5s4nxtMILKS4gO">
    <mxGraphModel>
      <root>
        <mxCell id="0" />
        <mxCell id="1" parent="0" />
      </root>
    </mxGraphModel>
  </diagram>
</mxfile>
